<svg xmlns="http://www.w3.org/2000/svg" viewBox="0 0 24 24">
  <path d="M12 0C12 0 18.742188 1.199219 19.84375 7.28125C19.824219 7.351563 19.816406 7.425781 19.8125 7.5C19.8125 8.839844 18.652344 10 17.1875 10C15.835938 10 14.78125 9.015625 14.625 7.8125C14.445313 2.230469 12 0 12 0 Z M 12 0C12 0 9.734375 1.882813 9.40625 7.3125C9.402344 7.355469 9.402344 7.394531 9.40625 7.4375C9.40625 7.46875 9.40625 7.5 9.40625 7.53125C9.390625 8.855469 8.269531 10 6.8125 10C5.347656 10 4.1875 8.839844 4.1875 7.5C4.1875 7.46875 4.1875 7.4375 4.1875 7.40625C5.289063 1.773438 12 0 12 0 Z M 12 0C4.800781 0 0 5.101563 0 9C0 10.398438 0.699219 11 2 11C2.554688 11 3 10.765625 3.34375 10.4375C4.195313 11.390625 5.429688 12 6.8125 12C7.964844 12 9.003906 11.566406 9.8125 10.875C10.101563 11.246094 10.515625 11.574219 11 11.78125L11 23.3125L10 21C5 21 2 21.800781 2 22.5C2 23.300781 5.898438 24 12 24C18.101563 24 22 23.300781 22 22.5C22 21.746094 18.507813 21.074219 13 21L13 11.78125C13.484375 11.574219 13.898438 11.246094 14.1875 10.875C14.996094 11.566406 16.035156 12 17.1875 12C18.53125 12 19.746094 11.4375 20.59375 10.53125C20.988281 10.878906 21.523438 11 22 11C23.199219 11 24 10.300781 24 9C24 5.101563 19.199219 0 12 0Z" fill="#FFFFFF" />
</svg>