<svg xmlns="http://www.w3.org/2000/svg" viewBox="0 0 24 24">
  <path d="M18.90625 1.0625L0.03125 7.6875L3 16.09375L3 11.28125L2.90625 10.96875L3 10.78125L3 8L4.46875 8L4.6875 7.625L15.25 3.90625L16.0625 4.25C16.074219 4.328125 16.066406 4.421875 16.09375 4.5C16.3125 5.125 17.042969 5.425781 17.71875 5.1875C17.800781 5.160156 17.863281 5.101563 17.9375 5.0625L18.75 5.40625L19.65625 8L21.34375 8 Z M 16.78125 7C16.613281 6.996094 16.417969 7.003906 16.25 7.0625C15.804688 7.21875 15.535156 7.597656 15.4375 8L17.90625 8C17.894531 7.925781 17.898438 7.855469 17.875 7.78125C17.710938 7.3125 17.28125 7.015625 16.78125 7 Z M 11.46875 7.21875C11.1875 7.238281 10.910156 7.308594 10.625 7.40625C10.226563 7.546875 9.859375 7.742188 9.5625 8L13.71875 8C13.144531 7.453125 12.316406 7.164063 11.46875 7.21875 Z M 4 9L4 21L24 21L24 9 Z M 8.40625 10.46875L19.59375 10.46875L20.25 11.09375C20.234375 11.171875 20.1875 11.230469 20.1875 11.3125C20.1875 11.972656 20.78125 12.5 21.5 12.5C21.589844 12.5 21.667969 12.484375 21.75 12.46875L22.40625 13.0625L22.40625 16.9375L21.75 17.53125C21.667969 17.515625 21.589844 17.5 21.5 17.5C20.78125 17.5 20.1875 18.027344 20.1875 18.6875C20.1875 18.769531 20.234375 18.828125 20.25 18.90625L19.59375 19.53125L8.40625 19.53125L7.75 18.90625C7.765625 18.828125 7.8125 18.769531 7.8125 18.6875C7.8125 18.027344 7.21875 17.5 6.5 17.5C6.410156 17.5 6.332031 17.515625 6.25 17.53125L5.59375 16.9375L5.59375 13.0625L6.25 12.46875C6.332031 12.484375 6.410156 12.5 6.5 12.5C7.21875 12.5 7.8125 11.972656 7.8125 11.3125C7.8125 11.230469 7.765625 11.171875 7.75 11.09375 Z M 14.0625 12.21875C12.40625 12.21875 11.0625 13.472656 11.0625 15C11.0625 16.527344 12.40625 17.78125 14.0625 17.78125C15.71875 17.78125 17.0625 16.527344 17.0625 15C17.0625 13.472656 15.71875 12.21875 14.0625 12.21875 Z M 8.5 13.8125C7.78125 13.8125 7.1875 14.339844 7.1875 15C7.1875 15.660156 7.78125 16.1875 8.5 16.1875C9.21875 16.1875 9.8125 15.660156 9.8125 15C9.8125 14.339844 9.21875 13.8125 8.5 13.8125 Z M 19.5 13.8125C18.78125 13.8125 18.1875 14.339844 18.1875 15C18.1875 15.660156 18.78125 16.1875 19.5 16.1875C20.21875 16.1875 20.8125 15.660156 20.8125 15C20.8125 14.339844 20.21875 13.8125 19.5 13.8125Z" fill="#FFFFFF" />
</svg>