<svg xmlns="http://www.w3.org/2000/svg" viewBox="0 0 24 24">
  <path d="M2 0L2 2L3 2L3 4L4.125 4C4.722656 8.320313 7.164063 10.953125 8.53125 12.125C7.492188 13.058594 4.820313 15.667969 4.15625 20L3 20L3 22L2 22L2 24L22 24L22 22L21 22L21 20L19.84375 20C19.179688 15.667969 16.507813 13.058594 15.46875 12.125C16.839844 10.96875 19.28125 8.355469 19.875 4L21 4L21 2L22 2L22 0 Z M 6.15625 4L17.84375 4C17.066406 9.121094 13.5 11.125 13.5 11.125L12.21875 11.875L13.375 12.78125C13.375 12.78125 16.917969 15.648438 17.8125 20L17.28125 20C16.078125 18.042969 13.613281 16 12 16C10.386719 16 7.921875 18.042969 6.71875 20L6.1875 20C7.082031 15.648438 10.625 12.78125 10.625 12.78125L11.75 11.875L10.5 11.15625C10.5 11.15625 6.933594 9.070313 6.15625 4 Z M 10 8C10 8.898438 11.101563 11 12 11C12.898438 11 14 8.898438 14 8Z" fill="#FFFFFF" />
</svg>